<?xml version="1.0" encoding="UTF-8"?>
<svg width="243px" height="54px" viewBox="0 0 243 54" version="1.1" xmlns="http://www.w3.org/2000/svg" xmlns:xlink="http://www.w3.org/1999/xlink">
    <!-- Generator: Sketch 62 (91390) - https://sketch.com -->
    <title>logo/riscal-texto-blanco</title>
    <desc>Created with Sketch.</desc>
    <defs>
        <polygon id="path-1" points="0.000185496183 -9.27480916e-05 242.865515 -9.27480916e-05 242.865515 53.9409916 0.000185496183 53.9409916"></polygon>
    </defs>
    <g id="Symbols" stroke="none" stroke-width="1" fill="none" fill-rule="evenodd">
        <g id="web/head/scroll" transform="translate(-839.000000, -15.000000)">
            <g id="Head-2" transform="translate(255.000000, 15.000000)">
                <g id="logo/riscal-texto-blanco" transform="translate(584.000000, 0.000000)">
                    <g id="Group-3">
                        <mask id="mask-2" fill="white">
                            <use xlink:href="#path-1"></use>
                        </mask>
                        <g id="Clip-2"></g>
                        <path d="M102.105632,22.7154916 C101.811621,22.9241748 101.939613,23.1662473 102.405208,22.9640565 C102.995086,22.7154916 107.651968,20.6657588 109.436441,19.9608733 C109.091418,19.1892092 109.00238,19.1372702 108.584086,18.4481519 C106.459227,19.7392053 103.828892,21.4300031 102.105632,22.7154916 L102.105632,22.7154916 Z M119.485697,11.8973542 C119.485697,11.8973542 119.467147,11.8871519 119.35585,11.8871519 C119.042361,12.9732321 118.309651,13.4805641 116.433357,13.4805641 C115.581002,13.4805641 115.336147,13.3729763 115.336147,12.6884954 L115.336147,9.27165573 C117.073319,9.27165573 117.41556,9.36162137 117.675254,10.5014954 L117.845911,10.5014954 L117.845911,7.90918626 C117.845911,7.90918626 117.781915,7.90176641 117.675254,7.90176641 C117.473991,8.79122061 117.027873,8.94332748 115.336147,8.94332748 L115.336147,5.13323588 C115.581002,5.11839618 115.581002,5.08871679 116.31093,5.08871679 C118.186296,5.08871679 118.673224,5.4773313 119.104502,6.71088092 C119.196323,6.71088092 119.267739,6.72201069 119.267739,6.72201069 L119.267739,4.77893817 L112.318124,4.77893817 L112.318124,4.97092672 C112.930262,5.00338855 113.483968,5.17868244 113.483968,6.05607939 L113.483968,12.4946519 C113.483968,13.3126901 113.069384,13.5120985 112.318124,13.5974267 L112.318124,13.7680832 L119.48106,13.7680832 L119.485697,11.8973542 Z M102.91625,46.2735069 C101.437846,46.2735069 101.059434,45.9739305 101.059434,44.4797588 L101.059434,36.0786366 L103.210262,36.0786366 C104.913117,36.0786366 106.020529,36.815984 106.074323,38.7859534 L106.347002,38.7859534 L106.347002,33.3935794 L106.131827,33.3935794 C105.891609,34.8209725 105.323063,35.3366519 102.929235,35.2939878 C102.600907,35.2976977 101.46196,35.3088275 101.059434,35.3088275 L101.059434,26.9883962 C101.437846,26.9512969 102.253102,26.9318198 102.698292,26.9318198 C106.284861,26.9318198 107.17617,27.7832473 107.858796,30.8782511 C108.087884,30.8782511 108.087884,30.8930908 108.087884,30.8930908 L108.087884,26.4096481 L96.5583687,26.4096481 L96.5583687,26.6609954 C97.7130824,26.6609954 98.3122351,27.3065221 98.3122351,29.3098809 L98.3122351,43.9427473 C98.3122351,45.8134763 97.9245481,46.3541977 96.5583687,46.5434038 L96.5583687,46.8318504 L108.239063,46.8318504 L108.239063,42.2380374 L108.004411,42.2380374 C107.17617,45.6715718 105.769182,46.2735069 102.91625,46.2735069 L102.91625,46.2735069 Z M91.3329412,13.4805641 C90.4722389,13.4805641 90.2375863,13.3729763 90.2375863,12.6884954 L90.2375863,9.27165573 C91.9701206,9.27165573 92.3095786,9.36162137 92.5674183,10.5014954 L92.7417847,10.5014954 L92.7417847,7.90918626 C92.7417847,7.90918626 92.8011435,7.90176641 92.5813305,7.90176641 C92.389342,8.79122061 91.9302389,8.94332748 90.2375863,8.94332748 L90.2375863,5.13323588 C90.4824412,5.11839618 90.4824412,5.08871679 91.2105137,5.08871679 C93.0775328,5.08871679 93.5217962,5.3558313 93.9911015,6.71088092 C94.0866321,6.71088092 94.1626855,6.72201069 94.1626855,6.72201069 L94.1626855,4.77893817 L87.2242008,4.77893817 L87.2242008,4.97092672 C87.818716,5.00338855 88.3816969,5.17868244 88.3816969,6.05607939 L88.3816969,12.4946519 C88.3816969,13.3126901 87.9754603,13.5120985 87.2242008,13.5974267 L87.2242008,13.7680832 L94.3871359,13.7680832 L94.3936282,11.8973542 C94.3936282,11.8973542 94.3593115,11.8871519 94.2489412,11.8871519 C93.920613,13.0381557 93.2073802,13.4805641 91.3329412,13.4805641 L91.3329412,13.4805641 Z M83.5254069,51.2717015 C82.8687504,51.7734687 81.6185061,52.3123351 79.8535099,52.3123351 C77.6813496,52.3123351 75.8375176,51.7196748 73.3129145,50.5482664 C70.2679947,49.1394229 68.694987,47.9299878 64.9563115,47.9299878 C62.9075061,47.9299878 61.4291015,48.5578924 60.6425977,49.085629 C60.4719412,49.1941443 60.3402389,49.4900107 60.577674,49.3314115 C60.8855977,49.1394229 61.8984069,48.9196099 62.3333954,48.9196099 C65.7112809,48.9196099 66.8873267,49.7357931 70.835613,51.6649534 C73.9723534,53.2138466 75.9358305,53.9409916 78.2424756,53.9409916 C81.0573802,53.9409916 82.8845176,52.5961443 83.7303802,51.4377206 C83.9715252,51.1177397 83.8175634,51.0407588 83.5254069,51.2717015 L83.5254069,51.2717015 Z M87.8771473,26.6609954 C89.6402885,26.513526 89.8322771,28.3137664 89.8322771,30.158526 L89.8322771,39.3711939 C89.8322771,42.404984 89.8730863,43.8527817 89.058758,44.7941748 C88.4577504,45.5027702 87.2501702,45.901587 85.8255595,45.901587 C84.4371206,45.901587 83.3464031,45.3729229 82.9225443,44.5001634 C82.4847733,43.5596977 82.5608267,42.0182244 82.5608267,40.0408351 L82.5608267,29.9470603 C82.5608267,27.2833351 82.8845176,26.6609954 84.4955519,26.6609954 L84.4955519,26.4096481 L78.1385977,26.4096481 L78.1385977,26.6609954 C79.4797351,26.6609954 79.7691092,27.4076176 79.7691092,29.9470603 L79.7691092,40.0408351 C79.7691092,43.2953656 79.8711321,44.4037053 80.7132847,45.562129 C81.8633611,47.1490489 84.3146931,47.0442435 85.1874527,47.0442435 C86.3848305,47.0442435 88.8528573,46.8958466 90.0112809,45.1735145 C90.8886779,43.8435069 90.7579031,43.0412359 90.7579031,39.3711939 L90.7579031,29.7383771 C90.7579031,27.7340908 91.1585748,26.6609954 92.3095786,26.6609954 L92.3095786,26.4096481 L87.8771473,26.4096481 L87.8771473,26.6609954 Z M158.624464,11.2369878 C158.624464,9.7882626 157.571773,9.13995344 156.978185,8.82368244 L154.996159,7.81736565 C153.897094,7.26273206 153.657804,6.7507626 153.657804,6.25827023 C153.657804,5.38365573 154.368254,4.92269771 155.060155,4.92269771 C156.249185,4.92269771 157.630205,5.28812519 158.068903,6.69789618 L158.23585,6.69789618 L158.23585,4.56283511 L158.042006,4.56283511 C157.9743,4.81418244 157.693273,4.94217481 157.399262,4.94217481 C157.001373,4.94217481 156.191682,4.57489237 155.124151,4.57489237 C153.211685,4.57489237 152.204441,5.8418313 152.204441,6.97335802 C152.204441,7.90918626 152.24525,8.66693817 154.499029,9.75765573 L155.462682,10.2269611 C156.325239,10.6387626 157.040327,10.9986252 157.040327,12.0911977 C157.040327,12.7487817 156.554327,13.6382359 155.124151,13.6382359 C153.891529,13.6382359 152.632937,13.1680031 152.259163,11.8064611 L152.082941,11.8064611 L152.082941,14.0231405 L152.24154,14.0231405 C152.299044,13.8116748 152.615315,13.657713 152.901907,13.657713 C153.320201,13.657713 153.884109,14.0231405 155.124151,14.0231405 C157.571773,14.0231405 158.624464,12.4093237 158.624464,11.2369878 L158.624464,11.2369878 Z M142.54009,13.7003771 C140.264979,13.7003771 140.009922,10.7194534 140.009922,9.29484275 C140.009922,7.26644198 140.666579,4.88467099 142.54009,4.88467099 C144.406182,4.88467099 145.054491,7.1152626 145.054491,9.16221298 C145.054491,10.4801634 144.811491,13.7003771 142.54009,13.7003771 L142.54009,13.7003771 Z M142.54009,4.57489237 C139.976533,4.57489237 137.942567,6.39924733 137.942567,9.29484275 C137.942567,12.0902702 139.819789,14.0231405 142.54009,14.0231405 C145.272449,14.0231405 147.118136,12.0902702 147.118136,9.29484275 C147.118136,6.39924733 145.114777,4.57489237 142.54009,4.57489237 L142.54009,4.57489237 Z M161.678659,31.8511786 C161.001598,32.0246176 160.254976,32.0069954 158.295208,32.0069954 L158.295208,18.5399725 C158.820163,18.5149305 159.67159,18.4750489 160.291147,18.4750489 C163.746941,18.4750489 166.155609,19.9117168 166.155609,25.4840221 C166.155609,29.0251443 164.258911,31.2186366 161.678659,31.8511786 L161.678659,31.8511786 Z M173.371411,45.7031061 C173.095021,45.9006595 172.652613,46.0258695 171.96906,46.0258695 C170.217976,46.0258695 169.53906,43.5170336 168.837884,39.6707702 C168.17288,35.9831061 167.807453,33.5503237 163.986231,32.5106176 C163.724682,32.4308542 164.078052,32.2499954 164.078052,32.2499954 C165.295834,31.7667779 169.26267,30.0731977 169.26267,25.0666557 C169.26267,18.2097893 163.860094,17.5420031 160.50354,17.5420031 L153.249712,17.5420031 L153.249712,17.8777511 C154.729044,17.8499267 155.30501,18.8692282 155.30501,22.5457626 L155.30501,41.8299458 C155.30501,45.2987244 155.204842,46.3115336 153.249712,46.5434038 L153.249712,46.8327779 L160.363491,46.8327779 L160.363491,46.5434038 C158.412998,46.5434038 158.295208,45.2551328 158.295208,41.8299458 L158.295208,32.7721672 C158.295208,32.7721672 161.63414,32.3149191 162.833373,33.3268008 C164.857136,35.0370756 165.000895,37.0348695 165.434956,39.292358 C165.86067,41.5572664 165.937651,44.4139076 167.149869,45.6224153 C167.91504,46.410774 169.132823,46.9644802 170.62514,46.9553201 C172.122094,46.9477855 173.03659,46.4710603 173.542995,45.9006595 C173.371411,45.7327855 173.542995,45.9006595 173.371411,45.7031061 L173.371411,45.7031061 Z M66.5840405,26.7333389 C69.5083878,26.7333389 70.8346855,31.321587 70.8346855,36.6787168 C70.8346855,40.5861939 70.152987,46.7020031 66.5840405,46.7020031 C63.0132389,46.7020031 62.3380328,40.6372053 62.3380328,36.6787168 C62.3380328,31.3753809 63.6680405,26.7333389 66.5840405,26.7333389 L66.5840405,26.7333389 Z M66.5840405,47.406953 C70.6111626,47.4263656 73.9723534,43.0310336 73.9723534,36.6787168 C73.9723534,30.0982397 70.6111626,25.950545 66.5840405,25.950545 C62.5541359,25.950545 59.1948,30.0982397 59.1948,36.6787168 C59.1948,43.0310336 62.305571,47.3911214 66.5840405,47.406953 L66.5840405,47.406953 Z M143.513018,39.242274 C142.621708,39.242274 142.466819,39.002984 142.466819,38.2674916 L142.466819,34.5575679 C143.704079,34.5575679 144.429369,34.5900298 144.549014,35.8569687 C144.722453,35.8467664 144.769754,35.8467664 144.769754,35.8467664 L144.769754,33.0967855 L144.549014,33.0967855 C144.407109,33.9686176 143.786624,34.2283122 142.466819,34.2283122 L142.466819,29.8339076 C142.795147,29.8339076 143.093796,29.8246328 143.423052,29.8246328 C144.769754,29.8246328 145.530289,30.2188122 145.69167,31.6675374 C145.815953,31.6675374 145.917976,31.6564076 145.917976,31.6564076 L145.917976,29.4953771 L139.750227,29.4953771 L139.750227,29.7244649 C140.293731,29.7745489 140.783441,29.9433504 140.783441,30.9209153 L140.783441,38.1330069 C140.783441,39.0567779 140.417086,39.2608237 139.750227,39.342442 L139.750227,39.5566901 L146.221262,39.5566901 L146.221262,37.1739916 L146.025563,37.1739916 C145.735262,38.8712817 144.949685,39.242274 143.513018,39.242274 L143.513018,39.242274 Z M133.675227,39.1736405 C133.101117,39.1736405 132.899853,38.7757511 132.899853,38.1784534 L132.899853,29.8988313 C133.094624,29.8626595 133.341334,29.8580221 133.758701,29.8580221 C135.786174,29.8580221 136.227655,33.0003275 136.227655,34.3479573 C136.227655,37.9169038 135.163834,39.1736405 133.675227,39.1736405 L133.675227,39.1736405 Z M133.743861,29.4953771 L130.26117,29.4953771 L130.26117,29.7244649 C130.785197,29.7244649 131.230388,29.9609725 131.230388,30.8661939 L131.230388,38.2081328 C131.230388,38.759984 130.996663,39.3350221 130.26117,39.3350221 L130.26117,39.5566901 L133.877418,39.5566901 C136.830518,39.4463198 137.959262,37.1192702 137.959262,34.382274 C137.959262,32.0793389 137.018796,29.4953771 133.743861,29.4953771 L133.743861,29.4953771 Z M191.157712,11.8973542 C191.157712,11.8973542 191.13638,11.8871519 191.017663,11.8871519 C190.702319,12.9732321 189.973319,13.4805641 188.103518,13.4805641 C187.23725,13.4805641 187.00909,13.3729763 187.00909,12.6884954 L187.00909,9.27165573 C188.748117,9.27165573 189.08201,9.36162137 189.331502,10.5014954 L189.505869,10.5014954 L189.505869,7.90918626 C189.505869,7.90918626 189.443727,7.90176641 189.331502,7.90176641 C189.140441,8.79122061 188.69154,8.94332748 187.00909,8.94332748 L187.00909,5.13323588 C187.23725,5.11839618 187.23725,5.08871679 187.98109,5.08871679 C189.850892,5.08871679 190.344311,5.4773313 190.765388,6.71088092 C190.863701,6.71088092 190.936972,6.72201069 190.936972,6.72201069 L190.936972,4.77893817 L183.991067,4.77893817 L183.991067,4.97092672 C184.602277,5.00338855 185.163403,5.17868244 185.163403,6.05607939 L185.163403,12.4946519 C185.163403,13.3126901 184.747892,13.5120985 183.991067,13.5974267 L183.991067,13.7680832 L191.15493,13.7680832 L191.157712,11.8973542 Z M128.026869,5.17868244 C128.390441,5.1174687 128.773491,5.12952595 129.050808,5.12952595 C130.113701,5.12952595 130.634945,6.0264 130.634945,7.1152626 C130.634945,8.28017863 130.317747,8.90901069 129.328124,9.10099924 C129.022056,9.1612855 128.476697,9.13902595 128.026869,9.13902595 L128.026869,5.17868244 Z M129.096254,9.45807939 C129.796502,9.45807939 130.164712,10.8279687 130.693376,12.0179267 C131.311079,13.4072931 132.057701,13.8153847 133.242094,13.8153847 C133.703052,13.8153847 134.060132,13.7801405 134.060132,13.7801405 L134.060132,13.6382359 C133.481384,13.6567855 133.190155,13.146671 132.950865,12.7218847 C131.912086,10.8761977 131.60509,9.63059084 130.292705,9.35698397 C130.16935,9.35698397 130.218506,9.3069 130.292705,9.27165573 C131.201636,8.99248397 132.395304,8.3979687 132.395304,7.14123206 C132.395304,5.08129695 130.398437,4.79285038 129.176018,4.79285038 L125.02554,4.79285038 L125.02554,4.96999924 C125.774945,5.01730076 126.193239,5.20279695 126.193239,6.35751069 L126.193239,12.2312473 C126.193239,13.3024878 125.927052,13.5046786 125.02554,13.6196863 L125.02554,13.7801405 L129.205697,13.7801405 L129.205697,13.6196863 C128.325518,13.4972588 128.026869,13.2959954 128.026869,12.2312473 L128.026869,9.45807939 L129.096254,9.45807939 Z M175.452678,26.6619229 C176.433953,26.6804725 177.30022,27.3074496 177.30022,29.3098809 L177.30022,43.9436748 C177.30022,45.8144038 176.711269,46.4488008 175.452678,46.5554611 L175.452678,46.8327779 L181.878266,46.8327779 L181.878266,46.5554611 C180.571445,46.4710603 180.004754,45.8811824 180.004754,43.9436748 L180.004754,29.3098809 C180.004754,27.2592206 180.715205,26.6804725 181.878266,26.6619229 L181.878266,26.4105756 L175.452678,26.4105756 L175.452678,26.6619229 Z M119.961495,35.2012397 C117.661342,33.1542893 115.694155,31.7064916 115.694155,29.2820565 C115.694155,27.3575336 117.121548,26.8029 118.151052,26.8029 C120.351037,26.8029 121.7673,27.7164687 122.386857,31.2946901 L122.638205,31.2946901 L122.638205,26.3808962 L122.429521,26.3808962 C122.228258,26.5951443 121.719071,26.7324115 121.373121,26.7324115 C120.786953,26.7324115 119.981899,26.1369687 118.391269,26.1369687 C115.21001,26.1369687 113.696361,28.380545 113.696361,30.7725183 C113.696361,33.7608618 115.82493,35.6761099 118.128792,37.7082206 C120.431727,39.7663008 121.834079,40.9321443 121.834079,42.9698198 C121.834079,44.883213 120.583834,46.4302511 118.198353,46.4302511 C116.079987,46.4302511 114.596945,44.3322893 114.12393,41.4116519 L113.889277,41.4116519 L113.889277,47.0906176 L114.099815,47.0906176 C114.309426,46.775274 114.721227,46.6667588 115.197953,46.6667588 C115.804525,46.6667588 116.320205,47.1824382 118.211338,47.1824382 C121.873033,47.1824382 123.796628,44.1746176 123.796628,41.5136748 C123.796628,38.6959878 122.402624,37.3669076 119.961495,35.2012397 L119.961495,35.2012397 Z M102.315243,12.6486137 L102.315243,5.1323084 C102.569373,5.1174687 102.804953,5.14436565 103.136991,5.14436565 C105.426941,5.14436565 105.719098,7.69957557 105.719098,9.13902595 C105.719098,12.3759344 104.558819,13.4805641 103.06372,13.4805641 C102.427468,13.4805641 102.315243,13.2459115 102.315243,12.6486137 L102.315243,12.6486137 Z M107.774395,9.05184275 C107.774395,6.99654504 106.688315,4.77893817 103.112876,4.77893817 L99.3528687,4.77893817 L99.3528687,4.94031985 C99.8731855,4.99689618 100.470483,5.19352214 100.470483,6.00599542 L100.470483,12.5567931 C100.470483,13.0455756 100.195949,13.5964992 99.3528687,13.5964992 L99.3528687,13.7671557 L103.258491,13.7671557 C106.606697,13.657713 107.774395,11.4976099 107.774395,9.05184275 L107.774395,9.05184275 Z M218.01014,39.6976672 C218.807773,36.9198618 219.933735,33.1199725 220.394693,31.4096977 C220.787018,32.8380183 221.90185,36.7584802 222.693918,39.6976672 L218.01014,39.6976672 Z M226.263792,41.8865221 L221.549407,25.2762664 L221.289712,25.2762664 L216.350876,42.3511901 C215.240682,45.390545 215.413193,46.4404534 213.714976,46.632442 L213.714976,46.8318504 L218.539731,46.8318504 L218.539731,46.632442 C217.37296,46.5758656 216.698682,46.1149076 216.698682,45.172587 C216.698682,44.6263008 217.256098,42.4810374 217.838556,40.4535641 L222.910949,40.4535641 C223.453525,42.4495031 223.893151,44.4843962 223.893151,45.0019305 C223.893151,45.9999 223.439613,46.4293237 222.188441,46.5758656 L222.188441,46.8318504 L229.118579,46.8318504 L229.118579,46.5758656 C227.386044,46.4404534 227.156029,45.1141557 226.263792,41.8865221 L226.263792,41.8865221 Z M202.466487,11.8639649 L202.344987,11.8639649 C202.081582,12.9695221 201.199548,13.461087 199.729491,13.461087 C199.163727,13.461087 198.760273,13.3674115 198.760273,12.8869763 L198.760273,6.32690382 C198.760273,5.16848015 199.190624,4.98947634 200.094918,4.94031985 L200.094918,4.77986565 L195.788624,4.77986565 L195.788624,4.94031985 C196.39056,4.98947634 196.932208,5.17775496 196.932208,6.05700687 L196.932208,12.4937244 C196.932208,13.3024878 196.525044,13.5167359 195.788624,13.6196863 L195.788624,13.7690107 L202.466487,13.7690107 L202.466487,11.8639649 Z M192.850365,35.2012397 C190.534445,33.1542893 188.600647,31.7064916 188.600647,29.2820565 C188.600647,27.3575336 190.005781,26.8029 191.041777,26.8029 C193.238979,26.8029 194.65246,27.7164687 195.285002,31.2946901 L195.537277,31.2946901 L195.537277,26.3808962 L195.331376,26.3808962 C195.108781,26.5951443 194.620926,26.7324115 194.254571,26.7324115 C193.678605,26.7324115 192.85593,26.1369687 191.266227,26.1369687 C188.105373,26.1369687 186.584304,28.380545 186.584304,30.7725183 C186.584304,33.7608618 188.697105,35.6761099 191.008388,37.7082206 C193.316888,39.7663008 194.720166,40.9321443 194.720166,42.9698198 C194.720166,44.883213 193.477342,46.4302511 191.067747,46.4302511 C188.955873,46.4302511 187.471903,44.3322893 187.013727,41.4116519 L186.775365,41.4116519 L186.775365,47.0906176 L186.984048,47.0906176 C187.209426,46.775274 187.607315,46.6667588 188.077548,46.6667588 C188.682266,46.6667588 189.194235,47.1824382 191.101136,47.1824382 C194.756338,47.1824382 196.674369,44.1746176 196.674369,41.5136748 C196.674369,38.6959878 195.28964,37.3669076 192.850365,35.2012397 L192.850365,35.2012397 Z M242.620846,42.2630794 C242.096819,45.002858 240.553491,46.2633046 237.905533,46.2633046 C236.336235,46.2633046 235.87064,45.9219916 235.87064,44.3693885 L235.87064,29.9470603 C235.87064,27.2833351 236.4633,26.6804725 237.884201,26.6619229 L237.884201,26.4096481 L231.45954,26.4096481 L231.45954,26.6619229 C232.553968,26.6619229 233.168888,27.3074496 233.168888,29.3089534 L233.168888,43.9427473 C233.168888,45.7810145 232.621674,46.5563885 231.45954,46.5563885 L231.45954,46.8318504 L242.756258,46.8318504 L242.865701,42.2630794 L242.620846,42.2630794 Z M174.606815,12.6486137 L174.606815,5.1323084 C174.864655,5.1174687 175.114147,5.14436565 175.435056,5.14436565 C177.723151,5.14436565 178.03664,7.69957557 178.03664,9.13902595 C178.03664,12.3759344 176.880071,13.4805641 175.372915,13.4805641 C174.728315,13.4805641 174.606815,13.2459115 174.606815,12.6486137 L174.606815,12.6486137 Z M180.09101,9.05184275 C180.09101,6.99654504 179.010495,4.77893817 175.411869,4.77893817 L171.68525,4.77893817 L171.68525,4.94031985 C172.187018,4.99689618 172.774113,5.19352214 172.774113,6.00599542 L172.774113,12.5567931 C172.774113,13.0455756 172.502361,13.5964992 171.68525,13.5964992 L171.68525,13.7671557 L175.555628,13.7671557 C178.918674,13.657713 180.09101,11.4976099 180.09101,9.05184275 L180.09101,9.05184275 Z M77.5051282,5.17868244 C77.8733382,5.1174687 78.2517504,5.12952595 78.5225748,5.12952595 C79.5891779,5.12952595 80.1094947,6.0264 80.1094947,7.1152626 C80.1094947,8.28017863 79.7969336,8.90901069 78.8017466,9.10099924 C78.5049527,9.1612855 77.9568115,9.13902595 77.5051282,9.13902595 L77.5051282,5.17868244 Z M78.6728267,13.6196863 C77.7963573,13.4972588 77.5051282,13.2959954 77.5051282,12.2312473 L77.5051282,9.45807939 L78.5726588,9.45807939 C79.2766168,9.45807939 79.631842,10.8279687 80.1651435,12.0179267 C80.7856282,13.4072931 81.525758,13.8153847 82.7231359,13.8153847 C83.178529,13.8153847 83.5365366,13.7801405 83.5365366,13.7801405 L83.5365366,13.6382359 C82.9642809,13.6567855 82.6684145,13.146671 82.4189221,12.7218847 C81.3857084,10.8761977 81.0805672,9.63059084 79.7672542,9.35698397 C79.6476092,9.35698397 79.6949107,9.3069 79.7672542,9.27165573 C80.6817504,8.99248397 81.8735634,8.3979687 81.8735634,7.14123206 C81.8735634,5.08129695 79.8711321,4.79285038 78.6524221,4.79285038 L74.4982351,4.79285038 L74.4982351,4.96999924 C75.2587695,5.01730076 75.6677885,5.20279695 75.6677885,6.35751069 L75.6677885,12.2312473 C75.6677885,13.3024878 75.4099489,13.5046786 74.4982351,13.6196863 L74.4982351,13.7801405 L78.6728267,13.7801405 L78.6728267,13.6196863 Z M207.783735,46.1325298 C205.535521,46.1325298 204.190674,44.0521901 204.190674,36.6499649 C204.190674,31.5488198 205.353735,26.7333389 208.250258,26.7333389 C210.104292,26.7333389 211.105044,29.136442 211.416678,31.6230183 C211.530758,31.6230183 211.689357,31.6285832 211.689357,31.6285832 L211.689357,26.2130221 L211.399983,26.2130221 C211.280338,26.5765947 210.760021,26.6619229 210.339873,26.6619229 C209.825121,26.6619229 209.168464,26.0460756 208.019315,26.0460756 C203.838231,26.0460756 201.092888,30.6667855 201.092888,36.8020718 C201.092888,42.4541405 203.079552,47.0377511 207.354311,47.0377511 C210.350075,47.0377511 212.164227,43.7108771 212.096521,40.2782702 L211.494586,40.3042397 C211.4343,42.9113885 210.203533,46.1325298 207.783735,46.1325298 L207.783735,46.1325298 Z M45.4040863,36.2641328 L45.4040863,27.0737244 L46.8528115,27.0737244 C48.9795252,27.0737244 50.6786702,28.2089611 50.6786702,31.8511786 C50.6786702,35.7762779 48.7114832,36.2641328 45.4040863,36.2641328 L45.4040863,36.2641328 Z M55.6750099,46.2429 C54.1576511,46.2429 53.5547885,44.0855794 52.8378458,41.7844992 C52.0448496,39.2283618 51.6525252,37.7518122 49.548071,36.7213809 C49.3542275,36.6341977 49.548071,36.4691061 49.548071,36.4691061 C50.5849947,36.1240832 53.6484641,35.1261137 53.6484641,31.4903885 C53.6484641,26.4226328 48.4443687,26.4087206 47.0475824,26.4087206 L40.9002389,26.4087206 L40.9002389,26.6609954 C42.1885099,26.6609954 42.6503954,27.3510412 42.6503954,29.9470603 L42.6503954,43.2962931 C42.6503954,45.7466977 42.3990481,46.4052092 40.9002389,46.5749382 L40.9002389,46.8327779 L47.1570252,46.8327779 L47.1570252,46.5749382 C45.6276092,46.439526 45.4040863,45.7188733 45.4040863,43.2962931 L45.4040863,36.9931328 C45.4040863,36.9931328 47.2071092,36.8280412 48.0112351,37.2787969 C48.9619031,37.8083885 49.306926,39.0391557 49.8439374,41.5813809 C50.1861779,43.180358 50.6703229,45.0918962 51.6886969,45.9423962 C52.365758,46.4998122 53.0854832,46.9273809 54.3440748,46.9191537 C55.6017389,46.9088313 56.5097427,46.5563885 56.932674,46.3300832 C56.932674,46.2345527 56.7842771,46.024942 56.7842771,46.024942 C56.4373992,46.2076557 56.0988687,46.2429 55.6750099,46.2429 L55.6750099,46.2429 Z M53.9350557,0.189762595 C54.6946626,0.189762595 55.1268687,0.398445802 55.1268687,1.27677023 L55.1268687,6.07741145 L49.3644298,6.07741145 L49.3644298,1.27677023 C49.3644298,0.398445802 49.8114756,0.189762595 50.5636626,0.189762595 L50.5636626,-0.000370992366 L46.0913496,-0.000370992366 L46.0913496,0.189762595 C46.7637733,0.189762595 47.2562656,0.422560305 47.2562656,1.27677023 L47.2562656,12.4946519 C47.2562656,13.2950679 46.9622542,13.4592321 46.0913496,13.5760947 L46.0913496,13.7690107 L50.5636626,13.7690107 L50.5636626,13.5760947 C49.767884,13.5436328 49.3644298,13.3024878 49.3644298,12.4946519 L49.3644298,6.92976641 L55.1268687,6.92976641 L55.1268687,12.4946519 C55.1268687,13.3024878 54.7410366,13.5436328 53.9350557,13.5760947 L53.9350557,13.7690107 L58.4240634,13.7690107 L58.4240634,13.5760947 C57.5364641,13.4592321 57.2387427,13.2950679 57.2387427,12.4946519 L57.2387427,1.27677023 C57.2387427,0.422560305 57.7423649,0.189762595 58.4240634,0.189762595 L58.4240634,-0.000370992366 L53.9350557,-0.000370992366 L53.9350557,0.189762595 Z M69.7717924,11.8973542 C69.7717924,11.8973542 69.7495328,11.8871519 69.6354527,11.8871519 C69.3136168,12.9732321 68.5836893,13.4805641 66.7194527,13.4805641 C65.8457656,13.4805641 65.6213153,13.3729763 65.6213153,12.6884954 L65.6213153,9.27165573 C67.3557046,9.27165573 67.6923802,9.36162137 67.9474374,10.5014954 L68.1134565,10.5014954 L68.1134565,7.90918626 C68.1134565,7.90918626 68.0550252,7.90176641 67.9474374,7.90176641 C67.7582313,8.79122061 67.3074756,8.94332748 65.6213153,8.94332748 L65.6213153,5.13323588 C65.8689527,5.11839618 65.8615328,5.08871679 66.5840405,5.08871679 C68.4594069,5.08871679 68.9556092,5.4773313 69.3794679,6.71088092 C69.4852008,6.71088092 69.547342,6.72201069 69.547342,6.72201069 L69.547342,4.77893817 L62.5977275,4.77893817 L62.5977275,4.97092672 C63.2107924,5.00338855 63.7672809,5.17868244 63.7672809,6.05607939 L63.7672809,12.4946519 C63.7672809,13.3126901 63.3638267,13.5120985 62.5977275,13.5974267 L62.5977275,13.7680832 L69.7643725,13.7680832 L69.7717924,11.8973542 Z M27.4044641,39.6976672 C28.2002427,36.9198618 29.3160023,33.1199725 29.789945,31.4096977 C30.1785595,32.8380183 31.2971015,36.7584802 32.0900977,39.6976672 L27.4044641,39.6976672 Z M35.6544069,41.8865221 L30.9381664,25.2762664 L30.6821817,25.2762664 L25.732216,42.3511901 C24.6377885,45.390545 24.8019527,46.4404534 23.1148649,46.632442 L23.1148649,46.8318504 L27.9377656,46.8318504 L27.9377656,46.632442 C26.7607924,46.5758656 26.0781664,46.1149076 26.0781664,45.172587 C26.0781664,44.6263008 26.6569145,42.4810374 27.2328802,40.4535641 L32.296926,40.4535641 C32.8246626,42.4495031 33.2744908,44.4843962 33.2744908,45.0019305 C33.2744908,45.9999 32.8135328,46.4293237 31.5809107,46.5758656 L31.5809107,46.8318504 L38.5036282,46.8318504 L38.5036282,46.5758656 C36.7766588,46.4404534 36.5512809,45.1141557 35.6544069,41.8865221 L35.6544069,41.8865221 Z M10.5734679,38.5679954 L5.62442977,17.545713 L0.0409946565,17.545713 L0.0409946565,17.8656939 C1.60936489,18.0122359 2.00168931,18.8757206 2.00168931,20.4422359 L2.00168931,43.666358 C2.00168931,45.4192969 1.71695267,46.362545 0.000185496183,46.5758656 L0.000185496183,46.8327779 L5.1319374,46.8327779 L5.1319374,46.5758656 C3.3094374,46.4293237 2.91340305,45.199484 2.91340305,43.0885374 L2.91340305,20.1714115 L3.04325038,20.1714115 L9.18688397,46.8327779 L9.78232672,46.8327779 L15.4631473,20.2502473 L15.6328763,20.2502473 L15.6328763,43.8212473 C15.6328763,45.8144038 15.0058992,46.4070641 13.6768191,46.5758656 L13.6768191,46.8327779 L20.5401779,46.8327779 L20.5401779,46.5758656 C19.0942351,46.3068962 18.6017427,45.7179458 18.6017427,43.2944382 L18.6017427,21.0784878 C18.6017427,18.4852511 19.3047733,17.979774 20.5401779,17.8656939 L20.5401779,17.545713 L15.2553916,17.545713 L10.5734679,38.5679954 Z" id="Fill-1" fill="#FFFFFF" mask="url(#mask-2)"></path>
                    </g>
                </g>
            </g>
        </g>
    </g>
</svg>