<svg id="visual" viewBox="0 0 900 600" width="900" height="600" xmlns="http://www.w3.org/2000/svg" xmlns:xlink="http://www.w3.org/1999/xlink" version="1.1"><path d="M0 556L21.5 558.2C43 560.3 86 564.7 128.8 563.5C171.7 562.3 214.3 555.7 257.2 554.5C300 553.3 343 557.7 385.8 560C428.7 562.3 471.3 562.7 514.2 562.7C557 562.7 600 562.3 642.8 560.2C685.7 558 728.3 554 771.2 553C814 552 857 554 878.5 555L900 556L900 601L878.5 601C857 601 814 601 771.2 601C728.3 601 685.7 601 642.8 601C600 601 557 601 514.2 601C471.3 601 428.7 601 385.8 601C343 601 300 601 257.2 601C214.3 601 171.7 601 128.8 601C86 601 43 601 21.5 601L0 601Z" fill="#fa7268"></path><path d="M0 566L21.5 566C43 566 86 566 128.8 567.3C171.7 568.7 214.3 571.3 257.2 572C300 572.7 343 571.3 385.8 570.2C428.7 569 471.3 568 514.2 566.2C557 564.3 600 561.7 642.8 561.7C685.7 561.7 728.3 564.3 771.2 566.2C814 568 857 569 878.5 569.5L900 570L900 601L878.5 601C857 601 814 601 771.2 601C728.3 601 685.7 601 642.8 601C600 601 557 601 514.2 601C471.3 601 428.7 601 385.8 601C343 601 300 601 257.2 601C214.3 601 171.7 601 128.8 601C86 601 43 601 21.5 601L0 601Z" fill="#ef5f67"></path><path d="M0 573L21.5 574.2C43 575.3 86 577.7 128.8 578.2C171.7 578.7 214.3 577.3 257.2 577C300 576.7 343 577.3 385.8 576.3C428.7 575.3 471.3 572.7 514.2 572.7C557 572.7 600 575.3 642.8 576C685.7 576.7 728.3 575.3 771.2 575.7C814 576 857 578 878.5 579L900 580L900 601L878.5 601C857 601 814 601 771.2 601C728.3 601 685.7 601 642.8 601C600 601 557 601 514.2 601C471.3 601 428.7 601 385.8 601C343 601 300 601 257.2 601C214.3 601 171.7 601 128.8 601C86 601 43 601 21.5 601L0 601Z" fill="#e34c67"></path><path d="M0 575L21.5 575.5C43 576 86 577 128.8 577.7C171.7 578.3 214.3 578.7 257.2 578.5C300 578.3 343 577.7 385.8 578.3C428.7 579 471.3 581 514.2 581.3C557 581.7 600 580.3 642.8 581C685.7 581.7 728.3 584.3 771.2 584.3C814 584.3 857 581.7 878.5 580.3L900 579L900 601L878.5 601C857 601 814 601 771.2 601C728.3 601 685.7 601 642.8 601C600 601 557 601 514.2 601C471.3 601 428.7 601 385.8 601C343 601 300 601 257.2 601C214.3 601 171.7 601 128.8 601C86 601 43 601 21.5 601L0 601Z" fill="#d53867"></path><path d="M0 592L21.5 590.8C43 589.7 86 587.3 128.8 586.3C171.7 585.3 214.3 585.7 257.2 587C300 588.3 343 590.7 385.8 591.7C428.7 592.7 471.3 592.3 514.2 592.2C557 592 600 592 642.8 592.2C685.7 592.3 728.3 592.7 771.2 592.5C814 592.3 857 591.7 878.5 591.3L900 591L900 601L878.5 601C857 601 814 601 771.2 601C728.3 601 685.7 601 642.8 601C600 601 557 601 514.2 601C471.3 601 428.7 601 385.8 601C343 601 300 601 257.2 601C214.3 601 171.7 601 128.8 601C86 601 43 601 21.5 601L0 601Z" fill="#c62368"></path></svg>