<svg id="visual" viewBox="0 0 900 600" width="900" height="600" xmlns="http://www.w3.org/2000/svg" xmlns:xlink="http://www.w3.org/1999/xlink" version="1.1"><path d="M0 520L12.5 521.7C25 523.3 50 526.7 75 527.2C100 527.7 125 525.3 150 522.2C175 519 200 515 225 514C250 513 275 515 300 519.3C325 523.7 350 530.3 375 529.5C400 528.7 425 520.3 450 521.2C475 522 500 532 525 535.7C550 539.3 575 536.7 600 531C625 525.3 650 516.7 675 516.7C700 516.7 725 525.3 750 527C775 528.7 800 523.3 825 519.5C850 515.7 875 513.3 887.5 512.2L900 511L900 601L887.5 601C875 601 850 601 825 601C800 601 775 601 750 601C725 601 700 601 675 601C650 601 625 601 600 601C575 601 550 601 525 601C500 601 475 601 450 601C425 601 400 601 375 601C350 601 325 601 300 601C275 601 250 601 225 601C200 601 175 601 150 601C125 601 100 601 75 601C50 601 25 601 12.5 601L0 601Z" fill="#fa7268"></path><path d="M0 552L12.5 548.3C25 544.7 50 537.3 75 538C100 538.7 125 547.3 150 551.7C175 556 200 556 225 552.7C250 549.3 275 542.7 300 540.8C325 539 350 542 375 542.5C400 543 425 541 450 538.2C475 535.3 500 531.7 525 530.7C550 529.7 575 531.3 600 531.3C625 531.3 650 529.7 675 532.8C700 536 725 544 750 543.7C775 543.3 800 534.7 825 532.2C850 529.7 875 533.3 887.5 535.2L900 537L900 601L887.5 601C875 601 850 601 825 601C800 601 775 601 750 601C725 601 700 601 675 601C650 601 625 601 600 601C575 601 550 601 525 601C500 601 475 601 450 601C425 601 400 601 375 601C350 601 325 601 300 601C275 601 250 601 225 601C200 601 175 601 150 601C125 601 100 601 75 601C50 601 25 601 12.5 601L0 601Z" fill="#eb5967"></path><path d="M0 568L12.5 566.3C25 564.7 50 561.3 75 561.7C100 562 125 566 150 564.2C175 562.3 200 554.7 225 554.3C250 554 275 561 300 563.8C325 566.7 350 565.3 375 561.8C400 558.3 425 552.7 450 552.3C475 552 500 557 525 558.7C550 560.3 575 558.7 600 559.3C625 560 650 563 675 561.5C700 560 725 554 750 554.3C775 554.7 800 561.3 825 565C850 568.7 875 569.3 887.5 569.7L900 570L900 601L887.5 601C875 601 850 601 825 601C800 601 775 601 750 601C725 601 700 601 675 601C650 601 625 601 600 601C575 601 550 601 525 601C500 601 475 601 450 601C425 601 400 601 375 601C350 601 325 601 300 601C275 601 250 601 225 601C200 601 175 601 150 601C125 601 100 601 75 601C50 601 25 601 12.5 601L0 601Z" fill="#da3f67"></path><path d="M0 580L12.5 578.7C25 577.3 50 574.7 75 575C100 575.3 125 578.7 150 577.7C175 576.7 200 571.3 225 569.8C250 568.3 275 570.7 300 571.8C325 573 350 573 375 571.8C400 570.7 425 568.3 450 569.7C475 571 500 576 525 577.7C550 579.3 575 577.7 600 576.2C625 574.7 650 573.3 675 573.2C700 573 725 574 750 573.7C775 573.3 800 571.7 825 570.8C850 570 875 570 887.5 570L900 570L900 601L887.5 601C875 601 850 601 825 601C800 601 775 601 750 601C725 601 700 601 675 601C650 601 625 601 600 601C575 601 550 601 525 601C500 601 475 601 450 601C425 601 400 601 375 601C350 601 325 601 300 601C275 601 250 601 225 601C200 601 175 601 150 601C125 601 100 601 75 601C50 601 25 601 12.5 601L0 601Z" fill="#c62368"></path></svg>