<svg id="visual" viewBox="0 0 900 600" width="900" height="600" xmlns="http://www.w3.org/2000/svg" xmlns:xlink="http://www.w3.org/1999/xlink" version="1.1"><path d="M0 538L21.5 535.3C43 532.7 86 527.3 128.8 526.8C171.7 526.3 214.3 530.7 257.2 530C300 529.3 343 523.7 385.8 522C428.7 520.3 471.3 522.7 514.2 525.5C557 528.3 600 531.7 642.8 531.7C685.7 531.7 728.3 528.3 771.2 522.7C814 517 857 509 878.5 505L900 501L900 601L878.5 601C857 601 814 601 771.2 601C728.3 601 685.7 601 642.8 601C600 601 557 601 514.2 601C471.3 601 428.7 601 385.8 601C343 601 300 601 257.2 601C214.3 601 171.7 601 128.8 601C86 601 43 601 21.5 601L0 601Z" fill="#fa7268"></path><path d="M0 535L21.5 532.8C43 530.7 86 526.3 128.8 524.2C171.7 522 214.3 522 257.2 525.2C300 528.3 343 534.7 385.8 536.3C428.7 538 471.3 535 514.2 532C557 529 600 526 642.8 524C685.7 522 728.3 521 771.2 520.8C814 520.7 857 521.3 878.5 521.7L900 522L900 601L878.5 601C857 601 814 601 771.2 601C728.3 601 685.7 601 642.8 601C600 601 557 601 514.2 601C471.3 601 428.7 601 385.8 601C343 601 300 601 257.2 601C214.3 601 171.7 601 128.8 601C86 601 43 601 21.5 601L0 601Z" fill="#ef5f67"></path><path d="M0 557L21.5 554.2C43 551.3 86 545.7 128.8 542.2C171.7 538.7 214.3 537.3 257.2 540.8C300 544.3 343 552.7 385.8 556.7C428.7 560.7 471.3 560.3 514.2 558.3C557 556.3 600 552.7 642.8 550.5C685.7 548.3 728.3 547.7 771.2 549.8C814 552 857 557 878.5 559.5L900 562L900 601L878.5 601C857 601 814 601 771.2 601C728.3 601 685.7 601 642.8 601C600 601 557 601 514.2 601C471.3 601 428.7 601 385.8 601C343 601 300 601 257.2 601C214.3 601 171.7 601 128.8 601C86 601 43 601 21.5 601L0 601Z" fill="#e34c67"></path><path d="M0 553L21.5 556.8C43 560.7 86 568.3 128.8 570.2C171.7 572 214.3 568 257.2 567C300 566 343 568 385.8 567.5C428.7 567 471.3 564 514.2 563.3C557 562.7 600 564.3 642.8 563.7C685.7 563 728.3 560 771.2 559C814 558 857 559 878.5 559.5L900 560L900 601L878.5 601C857 601 814 601 771.2 601C728.3 601 685.7 601 642.8 601C600 601 557 601 514.2 601C471.3 601 428.7 601 385.8 601C343 601 300 601 257.2 601C214.3 601 171.7 601 128.8 601C86 601 43 601 21.5 601L0 601Z" fill="#d53867"></path><path d="M0 577L21.5 578.7C43 580.3 86 583.7 128.8 583.3C171.7 583 214.3 579 257.2 577.3C300 575.7 343 576.3 385.8 576.5C428.7 576.7 471.3 576.3 514.2 576C557 575.7 600 575.3 642.8 576.7C685.7 578 728.3 581 771.2 580.5C814 580 857 576 878.5 574L900 572L900 601L878.5 601C857 601 814 601 771.2 601C728.3 601 685.7 601 642.8 601C600 601 557 601 514.2 601C471.3 601 428.7 601 385.8 601C343 601 300 601 257.2 601C214.3 601 171.7 601 128.8 601C86 601 43 601 21.5 601L0 601Z" fill="#c62368"></path></svg>