<svg id="visual" viewBox="0 0 900 600" width="900" height="600" xmlns="http://www.w3.org/2000/svg" xmlns:xlink="http://www.w3.org/1999/xlink" version="1.1"><path d="M0 506L21.5 510.7C43 515.3 86 524.7 128.8 524.8C171.7 525 214.3 516 257.2 511.7C300 507.3 343 507.7 385.8 509C428.7 510.3 471.3 512.7 514.2 517.5C557 522.3 600 529.7 642.8 527.7C685.7 525.7 728.3 514.3 771.2 509.8C814 505.3 857 507.7 878.5 508.8L900 510L900 601L878.5 601C857 601 814 601 771.2 601C728.3 601 685.7 601 642.8 601C600 601 557 601 514.2 601C471.3 601 428.7 601 385.8 601C343 601 300 601 257.2 601C214.3 601 171.7 601 128.8 601C86 601 43 601 21.5 601L0 601Z" fill="#fa7268"></path><path d="M0 533L21.5 530.5C43 528 86 523 128.8 526C171.7 529 214.3 540 257.2 545.5C300 551 343 551 385.8 550.5C428.7 550 471.3 549 514.2 548.7C557 548.3 600 548.7 642.8 545.7C685.7 542.7 728.3 536.3 771.2 535.5C814 534.7 857 539.3 878.5 541.7L900 544L900 601L878.5 601C857 601 814 601 771.2 601C728.3 601 685.7 601 642.8 601C600 601 557 601 514.2 601C471.3 601 428.7 601 385.8 601C343 601 300 601 257.2 601C214.3 601 171.7 601 128.8 601C86 601 43 601 21.5 601L0 601Z" fill="#ef5f67"></path><path d="M0 535L21.5 539.3C43 543.7 86 552.3 128.8 554.7C171.7 557 214.3 553 257.2 551.5C300 550 343 551 385.8 553.3C428.7 555.7 471.3 559.3 514.2 556.8C557 554.3 600 545.7 642.8 541.2C685.7 536.7 728.3 536.3 771.2 538.7C814 541 857 546 878.5 548.5L900 551L900 601L878.5 601C857 601 814 601 771.2 601C728.3 601 685.7 601 642.8 601C600 601 557 601 514.2 601C471.3 601 428.7 601 385.8 601C343 601 300 601 257.2 601C214.3 601 171.7 601 128.8 601C86 601 43 601 21.5 601L0 601Z" fill="#e34c67"></path><path d="M0 560L21.5 562.5C43 565 86 570 128.8 572.2C171.7 574.3 214.3 573.7 257.2 573.2C300 572.7 343 572.3 385.8 568.8C428.7 565.3 471.3 558.7 514.2 557.2C557 555.7 600 559.3 642.8 562.5C685.7 565.7 728.3 568.3 771.2 569.2C814 570 857 569 878.5 568.5L900 568L900 601L878.5 601C857 601 814 601 771.2 601C728.3 601 685.7 601 642.8 601C600 601 557 601 514.2 601C471.3 601 428.7 601 385.8 601C343 601 300 601 257.2 601C214.3 601 171.7 601 128.8 601C86 601 43 601 21.5 601L0 601Z" fill="#d53867"></path><path d="M0 586L21.5 585.5C43 585 86 584 128.8 584.2C171.7 584.3 214.3 585.7 257.2 585.7C300 585.7 343 584.3 385.8 583.3C428.7 582.3 471.3 581.7 514.2 580C557 578.3 600 575.7 642.8 576.8C685.7 578 728.3 583 771.2 583.2C814 583.3 857 578.7 878.5 576.3L900 574L900 601L878.5 601C857 601 814 601 771.2 601C728.3 601 685.7 601 642.8 601C600 601 557 601 514.2 601C471.3 601 428.7 601 385.8 601C343 601 300 601 257.2 601C214.3 601 171.7 601 128.8 601C86 601 43 601 21.5 601L0 601Z" fill="#c62368"></path></svg>