<svg id="visual" viewBox="0 0 900 600" width="900" height="600" xmlns="http://www.w3.org/2000/svg" xmlns:xlink="http://www.w3.org/1999/xlink" version="1.1"><path d="M0 367L21.5 366.5C43 366 86 365 128.8 372.2C171.7 379.3 214.3 394.7 257.2 401C300 407.3 343 404.7 385.8 398.3C428.7 392 471.3 382 514.2 383.2C557 384.3 600 396.7 642.8 401C685.7 405.3 728.3 401.7 771.2 399.8C814 398 857 398 878.5 398L900 398L900 601L878.5 601C857 601 814 601 771.2 601C728.3 601 685.7 601 642.8 601C600 601 557 601 514.2 601C471.3 601 428.7 601 385.8 601C343 601 300 601 257.2 601C214.3 601 171.7 601 128.8 601C86 601 43 601 21.5 601L0 601Z" fill="#fa7268"></path><path d="M0 483L21.5 474.5C43 466 86 449 128.8 438.7C171.7 428.3 214.3 424.7 257.2 422.8C300 421 343 421 385.8 427.7C428.7 434.3 471.3 447.7 514.2 456.7C557 465.7 600 470.3 642.8 472.5C685.7 474.7 728.3 474.3 771.2 469.3C814 464.3 857 454.7 878.5 449.8L900 445L900 601L878.5 601C857 601 814 601 771.2 601C728.3 601 685.7 601 642.8 601C600 601 557 601 514.2 601C471.3 601 428.7 601 385.8 601C343 601 300 601 257.2 601C214.3 601 171.7 601 128.8 601C86 601 43 601 21.5 601L0 601Z" fill="#e34c67"></path><path d="M0 500L21.5 505C43 510 86 520 128.8 523.8C171.7 527.7 214.3 525.3 257.2 528.8C300 532.3 343 541.7 385.8 545.2C428.7 548.7 471.3 546.3 514.2 537.8C557 529.3 600 514.7 642.8 505.2C685.7 495.7 728.3 491.3 771.2 497.8C814 504.3 857 521.7 878.5 530.3L900 539L900 601L878.5 601C857 601 814 601 771.2 601C728.3 601 685.7 601 642.8 601C600 601 557 601 514.2 601C471.3 601 428.7 601 385.8 601C343 601 300 601 257.2 601C214.3 601 171.7 601 128.8 601C86 601 43 601 21.5 601L0 601Z" fill="#c62368"></path></svg>